<?plantuml 1.2026.1?><svg xmlns="http://www.w3.org/2000/svg" xmlns:xlink="http://www.w3.org/1999/xlink" contentStyleType="text/css" data-diagram-type="DESCRIPTION" height="242px" preserveAspectRatio="none" style="width:927px;height:242px;background:#FFFFFF;" version="1.1" viewBox="0 0 927 242" width="927px" zoomAndPan="magnify"><title>BlazePen &#39033;&#30446;&#24635;&#35272;&#22270;</title><defs/><g><g class="title" data-source-line="9"><text fill="#000000" font-family="Microsoft YaHei" font-size="22" font-weight="bold" lengthAdjust="spacing" textLength="231.2475" x="343.8762" y="35.4209">BlazePen &#39033;&#30446;&#24635;&#35272;&#22270;</text></g><!--entity Scene--><g class="entity" data-qualified-name="Scene" data-source-line="11" id="ent0002"><rect fill="#FFFFFF" height="36.2969" rx="6" ry="6" style="stroke:#000000;stroke-width:1;" width="145.9995" x="12" y="129.6094"/><text fill="#000000" font-family="Microsoft YaHei" font-size="14" lengthAdjust="spacing" textLength="125.9995" x="22" y="152.6045">&#25239;&#25112;&#21382;&#21490;&#24773;&#22659;&#22330;&#26223;&#24211;</text></g><!--entity Round--><g class="entity" data-qualified-name="Round" data-source-line="12" id="ent0003"><rect fill="#FFFFFF" height="36.2969" rx="6" ry="6" style="stroke:#000000;stroke-width:1;" width="103.9996" x="218" y="129.6094"/><text fill="#000000" font-family="Microsoft YaHei" font-size="14" lengthAdjust="spacing" textLength="83.9996" x="228" y="152.6045">&#35757;&#32451;&#22238;&#21512;&#20132;&#20114;</text></g><!--entity Eval--><g class="entity" data-qualified-name="Eval" data-source-line="13" id="ent0004"><rect fill="#FFFFFF" height="36.2969" rx="6" ry="6" style="stroke:#000000;stroke-width:1;" width="103.9996" x="382" y="129.6094"/><text fill="#000000" font-family="Microsoft YaHei" font-size="14" lengthAdjust="spacing" textLength="83.9996" x="392" y="152.6045">&#32852;&#21512;&#35780;&#20272;&#26426;&#21046;</text></g><!--entity KT--><g class="entity" data-qualified-name="KT" data-source-line="14" id="ent0005"><rect fill="#FFFFFF" height="36.2969" rx="6" ry="6" style="stroke:#000000;stroke-width:1;" width="75.9998" x="546" y="129.6094"/><text fill="#000000" font-family="Microsoft YaHei" font-size="14" lengthAdjust="spacing" textLength="55.9998" x="556" y="152.6045">&#30693;&#35782;&#36861;&#36394;</text></g><!--entity Rec--><g class="entity" data-qualified-name="Rec" data-source-line="15" id="ent0006"><rect fill="#FFFFFF" height="36.2969" rx="6" ry="6" style="stroke:#000000;stroke-width:1;" width="103.9996" x="682" y="129.6094"/><text fill="#000000" font-family="Microsoft YaHei" font-size="14" lengthAdjust="spacing" textLength="83.9996" x="692" y="152.6045">&#29366;&#24577;&#39537;&#21160;&#25512;&#33616;</text></g><!--entity Ending--><g class="entity" data-qualified-name="Ending" data-source-line="16" id="ent0007"><rect fill="#FFFFFF" height="36.2969" rx="6" ry="6" style="stroke:#000000;stroke-width:1;" width="75.9998" x="846" y="58.6094"/><text fill="#000000" font-family="Microsoft YaHei" font-size="14" lengthAdjust="spacing" textLength="55.9998" x="856" y="81.6045">&#32467;&#23616;&#32467;&#26524;</text></g><!--entity Report--><g class="entity" data-qualified-name="Report" data-source-line="17" id="ent0008"><rect fill="#FFFFFF" height="36.2969" rx="6" ry="6" style="stroke:#000000;stroke-width:1;" width="75.9998" x="846" y="129.6094"/><text fill="#000000" font-family="Microsoft YaHei" font-size="14" lengthAdjust="spacing" textLength="55.9998" x="856" y="152.6045">&#35757;&#32451;&#25253;&#21578;</text></g><!--entity Diag--><g class="entity" data-qualified-name="Diag" data-source-line="18" id="ent0009"><rect fill="#FFFFFF" height="36.2969" rx="6" ry="6" style="stroke:#000000;stroke-width:1;" width="75.9998" x="846" y="200.6094"/><text fill="#000000" font-family="Microsoft YaHei" font-size="14" lengthAdjust="spacing" textLength="55.9998" x="856" y="223.6045">&#35786;&#26029;&#35270;&#22270;</text></g><!--link Scene to Round--><g class="link" data-entity-1="ent0002" data-entity-2="ent0003" data-link-type="dependency" data-source-line="20" id="lnk10"><path d="M158.33,147.7594 C178.21,147.7594 193.35,147.7594 211.78,147.7594" fill="none" id="Scene-to-Round" style="stroke:#000000;stroke-width:1;"/><polygon fill="#000000" points="217.78,147.7594,208.78,143.7594,212.78,147.7594,208.78,151.7594,217.78,147.7594" style="stroke:#000000;stroke-width:1;"/></g><!--link Round to Eval--><g class="link" data-entity-1="ent0003" data-entity-2="ent0004" data-link-type="dependency" data-source-line="21" id="lnk11"><path d="M322.26,147.7594 C341.17,147.7594 356.59,147.7594 375.52,147.7594" fill="none" id="Round-to-Eval" style="stroke:#000000;stroke-width:1;"/><polygon fill="#000000" points="381.52,147.7594,372.52,143.7594,376.52,147.7594,372.52,151.7594,381.52,147.7594" style="stroke:#000000;stroke-width:1;"/></g><!--link Eval to KT--><g class="link" data-entity-1="ent0004" data-entity-2="ent0005" data-link-type="dependency" data-source-line="22" id="lnk12"><path d="M486.35,147.7594 C505.88,147.7594 521.75,147.7594 539.74,147.7594" fill="none" id="Eval-to-KT" style="stroke:#000000;stroke-width:1;"/><polygon fill="#000000" points="545.74,147.7594,536.74,143.7594,540.74,147.7594,536.74,151.7594,545.74,147.7594" style="stroke:#000000;stroke-width:1;"/></g><!--link KT to Rec--><g class="link" data-entity-1="ent0005" data-entity-2="ent0006" data-link-type="dependency" data-source-line="23" id="lnk13"><path d="M622.35,147.7594 C640.33,147.7594 656.17,147.7594 675.69,147.7594" fill="none" id="KT-to-Rec" style="stroke:#000000;stroke-width:1;"/><polygon fill="#000000" points="681.69,147.7594,672.69,143.7594,676.69,147.7594,672.69,151.7594,681.69,147.7594" style="stroke:#000000;stroke-width:1;"/></g><!--link Rec to Ending--><g class="link" data-entity-1="ent0006" data-entity-2="ent0007" data-link-type="dependency" data-source-line="24" id="lnk14"><path d="M773.5,129.2894 C795.77,118.6094 818.24,107.824 840.3,97.244" fill="none" id="Rec-to-Ending" style="stroke:#000000;stroke-width:1;"/><polygon fill="#000000" points="845.71,94.6494,835.8653,94.9347,841.2017,96.8116,839.3248,102.148,845.71,94.6494" style="stroke:#000000;stroke-width:1;"/></g><!--link Rec to Report--><g class="link" data-entity-1="ent0006" data-entity-2="ent0008" data-link-type="dependency" data-source-line="25" id="lnk15"><path d="M786.35,147.7594 C805.88,147.7594 821.75,147.7594 839.74,147.7594" fill="none" id="Rec-to-Report" style="stroke:#000000;stroke-width:1;"/><polygon fill="#000000" points="845.74,147.7594,836.74,143.7594,840.74,147.7594,836.74,151.7594,845.74,147.7594" style="stroke:#000000;stroke-width:1;"/></g><!--link Rec to Diag--><g class="link" data-entity-1="ent0006" data-entity-2="ent0009" data-link-type="dependency" data-source-line="26" id="lnk16"><path d="M773.5,166.2294 C795.77,176.9094 818.241,187.6927 840.301,198.2827" fill="none" id="Rec-to-Diag" style="stroke:#000000;stroke-width:1;"/><polygon fill="#000000" points="845.71,200.8794,839.3275,193.3784,841.2025,198.7155,835.8654,200.5905,845.71,200.8794" style="stroke:#000000;stroke-width:1;"/></g><?plantuml-src PP1DIq9158Rtyoiczoxg1xJeYq2AA3Sj1--eGzSPkNSiA0B54hcGMKOVA4QHQ86QBQIkVVmPPxp-YyQvIagBEV1odZdlUyuSZ-C4XaaJ4GfC7EMGCsYHM9n3WrWumWcZmDuZD8aib81s71diWD0OZ2BJnbCT0qTHokHhZF9Df2Pka8Z5RAO6xg9rJAR8qLH4OoQ6Hm32RPQYnZApABRW_08u1e0JhdfB9Zh4MvZ2uSF7eDoIwPvNpuloDm1__mFIkP7vMr78YVCtcJqLZrbHSULTMxYb04Gst8bWYgS_UAtce9SLvQeevllkKz-zr9mECSDbhXJXjK_wdw-ouefyLtEh-yYSnWRtDQ-Tytw-lFSN3OJ2CssdAzEPuND7E0rPQ7XdHTyDHsQeNabqqghAQiLteOQwyF_Oqgc92sSy8iaiFeEq7NdTzEevTIEDh10K0q1V00Q3Y-CTTTLQxp8gMgdWeR3FgNJg-OoVP2B7hXCvSlW5?></g></svg>