<?plantuml 1.2026.1?><svg xmlns="http://www.w3.org/2000/svg" xmlns:xlink="http://www.w3.org/1999/xlink" contentStyleType="text/css" data-diagram-type="DESCRIPTION" height="313px" preserveAspectRatio="none" style="width:640px;height:313px;background:#FFFFFF;" version="1.1" viewBox="0 0 640 313" width="640px" zoomAndPan="magnify"><title>BlazePen &#22330;&#26223;&#24211;&#32467;&#26500;&#22270;</title><defs/><g><g class="title" data-source-line="9"><text fill="#000000" font-family="Microsoft YaHei" font-size="22" font-weight="bold" lengthAdjust="spacing" textLength="253.2475" x="189.2361" y="35.4209">BlazePen &#22330;&#26223;&#24211;&#32467;&#26500;&#22270;</text></g><!--entity Base--><g class="entity" data-qualified-name="Base" data-source-line="11" id="ent0002"><rect fill="#FFFFFF" height="36.2969" rx="6" ry="6" style="stroke:#000000;stroke-width:1;" width="103.9996" x="12" y="129.6094"/><text fill="#000000" font-family="Microsoft YaHei" font-size="14" lengthAdjust="spacing" textLength="83.9996" x="22" y="152.6045">&#24403;&#21069;&#22522;&#30784;&#22330;&#26223;</text></g><!--entity Main--><g class="entity" data-qualified-name="Main" data-source-line="12" id="ent0003"><rect fill="#FFFFFF" height="36.2969" rx="6" ry="6" style="stroke:#000000;stroke-width:1;" width="98.9069" x="176" y="58.6094"/><text fill="#000000" font-family="Microsoft YaHei" font-size="14" lengthAdjust="spacing" textLength="78.9069" x="186" y="81.6045">6&#20010;&#20027;&#32447;&#22330;&#26223;</text></g><!--entity Branch--><g class="entity" data-qualified-name="Branch" data-source-line="13" id="ent0004"><rect fill="#FFFFFF" height="36.2969" rx="6" ry="6" style="stroke:#000000;stroke-width:1;" width="98.9069" x="176" y="129.6094"/><text fill="#000000" font-family="Microsoft YaHei" font-size="14" lengthAdjust="spacing" textLength="78.9069" x="186" y="152.6045">2&#20010;&#20998;&#25903;&#22330;&#26223;</text></g><!--entity MainTrain--><g class="entity" data-qualified-name="MainTrain" data-source-line="14" id="ent0005"><rect fill="#FFFFFF" height="36.2969" rx="6" ry="6" style="stroke:#000000;stroke-width:1;" width="103.9996" x="364.81" y="58.6094"/><text fill="#000000" font-family="Microsoft YaHei" font-size="14" lengthAdjust="spacing" textLength="83.9996" x="374.81" y="81.6045">&#21382;&#21490;&#20027;&#32447;&#35757;&#32451;</text></g><!--entity BranchTrain--><g class="entity" data-qualified-name="BranchTrain" data-source-line="15" id="ent0006"><rect fill="#FFFFFF" height="36.2969" rx="6" ry="6" style="stroke:#000000;stroke-width:1;" width="103.9996" x="364.81" y="129.6094"/><text fill="#000000" font-family="Microsoft YaHei" font-size="14" lengthAdjust="spacing" textLength="83.9996" x="374.81" y="152.6045">&#33021;&#21147;&#24378;&#21270;&#35757;&#32451;</text></g><!--entity Extend--><g class="entity" data-qualified-name="Extend" data-source-line="16" id="ent0007"><rect fill="#FFFFFF" height="36.2969" rx="6" ry="6" style="stroke:#000000;stroke-width:1;" width="75.9998" x="187.45" y="200.6094"/><text fill="#000000" font-family="Microsoft YaHei" font-size="14" lengthAdjust="spacing" textLength="55.9998" x="197.45" y="223.6045">&#21518;&#32493;&#25193;&#23637;</text></g><!--entity Goal--><g class="entity" data-qualified-name="Goal" data-source-line="17" id="ent0008"><rect fill="#FFFFFF" height="36.2969" rx="6" ry="6" style="stroke:#000000;stroke-width:1;" width="163.8139" x="334.91" y="200.6094"/><text fill="#000000" font-family="Microsoft YaHei" font-size="14" lengthAdjust="spacing" textLength="143.8139" x="344.91" y="223.6045">&#19981;&#23569;&#20110;12&#20010;&#39640;&#36136;&#37327;&#22330;&#26223;</text></g><!--entity ClassUse--><g class="entity" data-qualified-name="ClassUse" data-source-line="18" id="ent0009"><rect fill="#FFFFFF" height="36.2969" rx="6" ry="6" style="stroke:#000000;stroke-width:1;" width="75.9998" x="558.72" y="129.6094"/><text fill="#000000" font-family="Microsoft YaHei" font-size="14" lengthAdjust="spacing" textLength="55.9998" x="568.72" y="152.6045">&#35838;&#22530;&#23454;&#35757;</text></g><!--entity AfterUse--><g class="entity" data-qualified-name="AfterUse" data-source-line="19" id="ent0010"><rect fill="#FFFFFF" height="36.2969" rx="6" ry="6" style="stroke:#000000;stroke-width:1;" width="75.9998" x="558.72" y="200.6094"/><text fill="#000000" font-family="Microsoft YaHei" font-size="14" lengthAdjust="spacing" textLength="55.9998" x="568.72" y="223.6045">&#35838;&#21518;&#35757;&#32451;</text></g><!--entity DemoUse--><g class="entity" data-qualified-name="DemoUse" data-source-line="20" id="ent0011"><rect fill="#FFFFFF" height="36.2969" rx="6" ry="6" style="stroke:#000000;stroke-width:1;" width="75.9998" x="558.72" y="271.6094"/><text fill="#000000" font-family="Microsoft YaHei" font-size="14" lengthAdjust="spacing" textLength="55.9998" x="568.72" y="294.6045">&#25945;&#23398;&#23637;&#31034;</text></g><!--link Base to Main--><g class="link" data-entity-1="ent0002" data-entity-2="ent0003" data-link-type="dependency" data-source-line="22" id="lnk12"><path d="M106.48,129.2894 C129.92,118.8594 153.6493,108.2912 177.1493,97.8212" fill="none" id="Base-to-Main" style="stroke:#000000;stroke-width:1;"/><polygon fill="#000000" points="182.63,95.3794,172.7811,95.3883,178.0628,97.4142,176.0369,102.6959,182.63,95.3794" style="stroke:#000000;stroke-width:1;"/></g><!--link Base to Branch--><g class="link" data-entity-1="ent0002" data-entity-2="ent0004" data-link-type="dependency" data-source-line="23" id="lnk13"><path d="M116.33,147.7594 C135.36,147.7594 150.87,147.7594 169.66,147.7594" fill="none" id="Base-to-Branch" style="stroke:#000000;stroke-width:1;"/><polygon fill="#000000" points="175.66,147.7594,166.66,143.7594,170.66,147.7594,166.66,151.7594,175.66,147.7594" style="stroke:#000000;stroke-width:1;"/></g><!--link Main to MainTrain--><g class="link" data-entity-1="ent0003" data-entity-2="ent0005" data-link-type="dependency" data-source-line="24" id="lnk14"><path d="M275.22,76.7594 C302.61,76.7594 330.78,76.7594 358.57,76.7594" fill="none" id="Main-to-MainTrain" style="stroke:#000000;stroke-width:1;"/><polygon fill="#000000" points="364.57,76.7594,355.57,72.7594,359.57,76.7594,355.57,80.7594,364.57,76.7594" style="stroke:#000000;stroke-width:1;"/></g><!--link Branch to BranchTrain--><g class="link" data-entity-1="ent0004" data-entity-2="ent0006" data-link-type="dependency" data-source-line="25" id="lnk15"><path d="M275.22,147.7594 C302.61,147.7594 330.78,147.7594 358.57,147.7594" fill="none" id="Branch-to-BranchTrain" style="stroke:#000000;stroke-width:1;"/><polygon fill="#000000" points="364.57,147.7594,355.57,143.7594,359.57,147.7594,355.57,151.7594,364.57,147.7594" style="stroke:#000000;stroke-width:1;"/></g><!--link Base to Extend--><g class="link" data-entity-1="ent0002" data-entity-2="ent0007" data-link-type="dependency" data-source-line="26" id="lnk16"><path d="M106.48,166.2294 C131.39,177.3194 157.3582,188.8902 181.5182,199.6402" fill="none" id="Base-to-Extend" style="stroke:#000000;stroke-width:1;"/><polygon fill="#000000" points="187,202.0794,180.4033,194.7661,182.4318,200.0468,177.1511,202.0752,187,202.0794" style="stroke:#000000;stroke-width:1;"/></g><!--link Extend to Goal--><g class="link" data-entity-1="ent0007" data-entity-2="ent0008" data-link-type="dependency" data-source-line="27" id="lnk17"><path d="M263.86,218.7594 C284.13,218.7594 304,218.7594 328.62,218.7594" fill="none" id="Extend-to-Goal" style="stroke:#000000;stroke-width:1;"/><polygon fill="#000000" points="334.62,218.7594,325.62,214.7594,329.62,218.7594,325.62,222.7594,334.62,218.7594" style="stroke:#000000;stroke-width:1;"/></g><!--link Goal to ClassUse--><g class="link" data-entity-1="ent0008" data-entity-2="ent0009" data-link-type="dependency" data-source-line="28" id="lnk18"><path d="M464.09,200.2894 C493.43,188.5794 525.3273,175.8532 552.7673,164.9032" fill="none" id="Goal-to-ClassUse" style="stroke:#000000;stroke-width:1;"/><polygon fill="#000000" points="558.34,162.6794,548.4985,162.2999,553.6961,164.5325,551.4635,169.7302,558.34,162.6794" style="stroke:#000000;stroke-width:1;"/></g><!--link Goal to AfterUse--><g class="link" data-entity-1="ent0008" data-entity-2="ent0010" data-link-type="dependency" data-source-line="29" id="lnk19"><path d="M499.22,218.7594 C519.9,218.7594 535.12,218.7594 552.38,218.7594" fill="none" id="Goal-to-AfterUse" style="stroke:#000000;stroke-width:1;"/><polygon fill="#000000" points="558.38,218.7594,549.38,214.7594,553.38,218.7594,549.38,222.7594,558.38,218.7594" style="stroke:#000000;stroke-width:1;"/></g><!--link Goal to DemoUse--><g class="link" data-entity-1="ent0008" data-entity-2="ent0011" data-link-type="dependency" data-source-line="30" id="lnk20"><path d="M464.09,237.2294 C493.43,248.9394 525.328,261.6638 552.768,272.6238" fill="none" id="Goal-to-DemoUse" style="stroke:#000000;stroke-width:1;"/><polygon fill="#000000" points="558.34,274.8494,551.4657,267.7964,553.6967,272.9948,548.4983,275.2257,558.34,274.8494" style="stroke:#000000;stroke-width:1;"/></g><?plantuml-src PP1BImCn58Nt-HMnUnTruLBmxQOYeWkNePEsmMbICX554KIbMj6gL4MfL0KH7xHLSL6cFlvCxqpz5ywZZcdTJCYvtvoSS_jKXcOfpfc4SMJIbC9AOCdI6OKD9cbICS6HjSXuZaYInLQ666APyJHE4TEYsiIWAR9agWd1rJJn71CiAOKbFCC5CaMPHlgkXATDYjSGnhDYYHkZGd8gSNm0hIEacF9c8oPPfJEKOxYqdOiws2MtMN8gsr3-HEZF8WOV9IWSm9Njtco4Q0mJ2uyGBvs63ROQZwr6qxM_D2ZXbzQW0G-2tRnpKjUT9E79JDUJnJmSlePkxLhLRMv5RdEonxAzzG5xPNYtOVzCOqFJVpGS5TrcrIaymCjfm8slACeD7Mar3k3vk6KNutxQxwVpzjlzzywX5dXI4BChGlqJhZUXLl7U3u1HarZMVFT-VEYeg2KSJYagUo3dz0AgTruszzOEe36Q5Jw3_7NZ_lwXSANHhRCxNuocOUbmea4T-VVFJl7m29IWbly9Rb67I8a2HqedtGy0?></g></svg>