<?plantuml 1.2026.1?><svg xmlns="http://www.w3.org/2000/svg" xmlns:xlink="http://www.w3.org/1999/xlink" contentStyleType="text/css" data-diagram-type="DESCRIPTION" height="597px" preserveAspectRatio="none" style="width:317px;height:597px;background:#FFFFFF;" version="1.1" viewBox="0 0 317 597" width="317px" zoomAndPan="magnify"><title>BlazePen &#33021;&#21147;&#25351;&#26631;&#22270;</title><defs/><g><g class="title" data-source-line="9"><text fill="#000000" font-family="Microsoft YaHei" font-size="22" font-weight="bold" lengthAdjust="spacing" textLength="231.2475" x="38.6001" y="35.4209">BlazePen &#33021;&#21147;&#25351;&#26631;&#22270;</text></g><!--entity Core--><g class="entity" data-qualified-name="Core" data-source-line="11" id="ent0002"><rect fill="#FFFFFF" height="36.2969" rx="6" ry="6" style="stroke:#000000;stroke-width:1;" width="98.9069" x="12" y="307.6094"/><text fill="#000000" font-family="Microsoft YaHei" font-size="14" lengthAdjust="spacing" textLength="78.9069" x="22" y="330.6045">8&#39033;&#26680;&#24515;&#33021;&#21147;</text></g><!--entity K1--><g class="entity" data-qualified-name="K1" data-source-line="12" id="ent0003"><rect fill="#FFFFFF" height="36.2969" rx="6" ry="6" style="stroke:#000000;stroke-width:1;" width="98.5378" x="191.91" y="58.6094"/><text fill="#000000" font-family="Microsoft YaHei" font-size="14" lengthAdjust="spacing" textLength="78.5378" x="201.91" y="81.6045">K1 &#21490;&#23454;&#26680;&#39564;</text></g><!--entity K2--><g class="entity" data-qualified-name="K2" data-source-line="13" id="ent0004"><rect fill="#FFFFFF" height="36.2969" rx="6" ry="6" style="stroke:#000000;stroke-width:1;" width="126.5377" x="177.91" y="129.6094"/><text fill="#000000" font-family="Microsoft YaHei" font-size="14" lengthAdjust="spacing" textLength="106.5377" x="187.91" y="152.6045">K2 &#26469;&#28304;&#21487;&#20449;&#35780;&#20272;</text></g><!--entity K3--><g class="entity" data-qualified-name="K3" data-source-line="14" id="ent0005"><rect fill="#FFFFFF" height="36.2969" rx="6" ry="6" style="stroke:#000000;stroke-width:1;" width="140.5377" x="170.91" y="200.6094"/><text fill="#000000" font-family="Microsoft YaHei" font-size="14" lengthAdjust="spacing" textLength="120.5377" x="180.91" y="223.6045">K3 &#26102;&#25928;&#19982;&#20934;&#30830;&#24179;&#34913;</text></g><!--entity K4--><g class="entity" data-qualified-name="K4" data-source-line="15" id="ent0006"><rect fill="#FFFFFF" height="36.2969" rx="6" ry="6" style="stroke:#000000;stroke-width:1;" width="126.5377" x="177.91" y="271.6094"/><text fill="#000000" font-family="Microsoft YaHei" font-size="14" lengthAdjust="spacing" textLength="106.5377" x="187.91" y="294.6045">K4 &#39118;&#38505;&#27807;&#36890;&#34920;&#36798;</text></g><!--entity K5--><g class="entity" data-qualified-name="K5" data-source-line="16" id="ent0007"><rect fill="#FFFFFF" height="36.2969" rx="6" ry="6" style="stroke:#000000;stroke-width:1;" width="140.5377" x="170.91" y="342.6094"/><text fill="#000000" font-family="Microsoft YaHei" font-size="14" lengthAdjust="spacing" textLength="120.5377" x="180.91" y="365.6045">K5 &#20262;&#29702;&#19982;&#23433;&#20840;&#36793;&#30028;</text></g><!--entity K6--><g class="entity" data-qualified-name="K6" data-source-line="17" id="ent0008"><rect fill="#FFFFFF" height="36.2969" rx="6" ry="6" style="stroke:#000000;stroke-width:1;" width="112.5378" x="184.91" y="413.6094"/><text fill="#000000" font-family="Microsoft YaHei" font-size="14" lengthAdjust="spacing" textLength="92.5378" x="194.91" y="436.6045">K6 &#21453;&#35875;&#19982;&#32416;&#20559;</text></g><!--entity K7--><g class="entity" data-qualified-name="K7" data-source-line="18" id="ent0009"><rect fill="#FFFFFF" height="36.2969" rx="6" ry="6" style="stroke:#000000;stroke-width:1;" width="126.5377" x="177.91" y="484.6094"/><text fill="#000000" font-family="Microsoft YaHei" font-size="14" lengthAdjust="spacing" textLength="106.5377" x="187.91" y="507.6045">K7 &#20844;&#20849;&#34892;&#21160;&#25351;&#24341;</text></g><!--entity K8--><g class="entity" data-qualified-name="K8" data-source-line="19" id="ent0010"><rect fill="#FFFFFF" height="36.2969" rx="6" ry="6" style="stroke:#000000;stroke-width:1;" width="126.5377" x="177.91" y="555.6094"/><text fill="#000000" font-family="Microsoft YaHei" font-size="14" lengthAdjust="spacing" textLength="106.5377" x="187.91" y="578.6045">K8 &#27807;&#36890;&#38381;&#29615;&#31649;&#29702;</text></g><!--link Core to K1--><g class="link" data-entity-1="ent0002" data-entity-2="ent0003" data-link-type="dependency" data-source-line="21" id="lnk11"><path d="M67.47,307.3694 C79.26,267.1594 112.26,170.3394 170.91,111.7594 C177.29,105.3794 179.8614,102.9001 187.8814,98.3501" fill="none" id="Core-to-K1" style="stroke:#000000;stroke-width:1;"/><polygon fill="#000000" points="193.1,95.3894,183.2982,96.3513,188.7511,97.8566,187.2458,103.3095,193.1,95.3894" style="stroke:#000000;stroke-width:1;"/></g><!--link Core to K2--><g class="link" data-entity-1="ent0002" data-entity-2="ent0004" data-link-type="dependency" data-source-line="22" id="lnk12"><path d="M72.64,307.3794 C89.71,277.9094 126.63,219.6694 170.91,182.7594 C178.36,176.5494 181.8121,173.8946 190.5221,169.2246" fill="none" id="Core-to-K2" style="stroke:#000000;stroke-width:1;"/><polygon fill="#000000" points="195.81,166.3894,185.988,167.1169,191.4034,168.752,189.7683,174.1674,195.81,166.3894" style="stroke:#000000;stroke-width:1;"/></g><!--link Core to K3--><g class="link" data-entity-1="ent0002" data-entity-2="ent0005" data-link-type="dependency" data-source-line="23" id="lnk13"><path d="M88.2,307.4194 C109.84,292.3094 141.8,270.6994 170.91,253.7594 C180.57,248.1394 185.8985,245.1925 195.9185,240.1125" fill="none" id="Core-to-K3" style="stroke:#000000;stroke-width:1;"/><polygon fill="#000000" points="201.27,237.3994,191.4339,237.9014,196.8104,239.6603,195.0515,245.0368,201.27,237.3994" style="stroke:#000000;stroke-width:1;"/></g><!--link Core to K4--><g class="link" data-entity-1="ent0002" data-entity-2="ent0006" data-link-type="dependency" data-source-line="24" id="lnk14"><path d="M111.02,315.9194 C131.57,311.7594 149.8995,308.0511 171.7595,303.6211" fill="none" id="Core-to-K4" style="stroke:#000000;stroke-width:1;"/><polygon fill="#000000" points="177.64,302.4294,168.0248,300.2966,172.7396,303.4225,169.6138,308.1372,177.64,302.4294" style="stroke:#000000;stroke-width:1;"/></g><!--link Core to K5--><g class="link" data-entity-1="ent0002" data-entity-2="ent0007" data-link-type="dependency" data-source-line="25" id="lnk15"><path d="M111.02,335.3294 C129.41,338.9494 144.8431,341.9897 164.7931,345.9197" fill="none" id="Core-to-K5" style="stroke:#000000;stroke-width:1;"/><polygon fill="#000000" points="170.68,347.0794,162.6228,341.4153,165.7743,346.113,161.0766,349.2644,170.68,347.0794" style="stroke:#000000;stroke-width:1;"/></g><!--link Core to K6--><g class="link" data-entity-1="ent0002" data-entity-2="ent0008" data-link-type="dependency" data-source-line="26" id="lnk16"><path d="M88.67,344.1094 C110.32,358.9794 142.06,380.0994 170.91,396.7594 C180.71,402.4194 186.1751,405.4329 196.3051,410.5529" fill="none" id="Core-to-K6" style="stroke:#000000;stroke-width:1;"/><polygon fill="#000000" points="201.66,413.2594,195.432,405.6297,197.1976,411.0039,191.8233,412.7695,201.66,413.2594" style="stroke:#000000;stroke-width:1;"/></g><!--link Core to K7--><g class="link" data-entity-1="ent0002" data-entity-2="ent0009" data-link-type="dependency" data-source-line="27" id="lnk17"><path d="M72.67,344.0094 C89.78,373.2594 126.76,431.0894 170.91,467.7594 C178.37,473.9594 181.8233,476.602 190.5433,481.282" fill="none" id="Core-to-K7" style="stroke:#000000;stroke-width:1;"/><polygon fill="#000000" points="195.83,484.1194,189.7915,476.3389,191.4244,481.7549,186.0084,483.3878,195.83,484.1194" style="stroke:#000000;stroke-width:1;"/></g><!--link Core to K8--><g class="link" data-entity-1="ent0002" data-entity-2="ent0010" data-link-type="dependency" data-source-line="28" id="lnk18"><path d="M67.58,344.3694 C79.5,384.5794 112.57,480.6094 170.91,538.7594 C177.3,545.1394 179.8714,547.6087 187.8914,552.1587" fill="none" id="Core-to-K8" style="stroke:#000000;stroke-width:1;"/><polygon fill="#000000" points="193.11,555.1194,187.2558,547.1992,188.7611,552.6521,183.3082,554.1574,193.11,555.1194" style="stroke:#000000;stroke-width:1;"/></g><?plantuml-src LT1DIm9160Vm-toA9-yTVFVKeI22AA9Rnq577TfcOtSYA8AYr0hJBX8bbKiK5gLc42ccNyRPbs_HR1iqU_l3yvi_ppmpl4Ys26nhc3AaaJm7heD12qKEEMgGBASwG-OcPTlOm5jW5d5EtwMi07cicKIPv4WUxsXyKMTy5Sl65PerT5ENXHjuYL15-gsO5JG2-mXWNTzXkGNTOCI0Q0mT8CGfbxDv3U-HDSB0FVuMvqsxMh5R5T4S8_J_FfBnh87T-XAJuq1509iWouYAbgCWwdtHkPFIUwd-ckLeICJ0ldsqXvUYtfrEBBTxCXtr0XSBkJZOLvzsutJwLHELicDrnE33jQo0naCq0Tv3pRj-jllttk6DQxNTyJXmYP1BmdJqv5oM_ShEcIX9Dt0QVricGpGb_t7XzXuaTOOjSLGFK2g4qY1AhwBqxbfLSTwMPnEZHk3I8PU1O3FlwisfTPsE9NS8N0OX_uGmEpldt-a_nvGSLt92oKabfvISLdBc1m00?></g></svg>