<?plantuml 1.2026.1?><svg xmlns="http://www.w3.org/2000/svg" xmlns:xlink="http://www.w3.org/1999/xlink" contentStyleType="text/css" data-diagram-type="DESCRIPTION" height="242px" preserveAspectRatio="none" style="width:975px;height:242px;background:#FFFFFF;" version="1.1" viewBox="0 0 975 242" width="975px" zoomAndPan="magnify"><title>BlazePen &#32852;&#21512;&#35780;&#20272;&#26426;&#21046;&#22270;</title><defs/><g><g class="title" data-source-line="9"><text fill="#000000" font-family="Microsoft YaHei" font-size="22" font-weight="bold" lengthAdjust="spacing" textLength="275.2476" x="345.786" y="35.4209">BlazePen &#32852;&#21512;&#35780;&#20272;&#26426;&#21046;&#22270;</text></g><!--entity Input--><g class="entity" data-qualified-name="Input" data-source-line="11" id="ent0002"><rect fill="#FFFFFF" height="36.2969" rx="6" ry="6" style="stroke:#000000;stroke-width:1;" width="89.9997" x="12" y="129.6094"/><text fill="#000000" font-family="Microsoft YaHei" font-size="14" lengthAdjust="spacing" textLength="69.9997" x="22" y="152.6045">&#23398;&#20064;&#32773;&#36755;&#20837;</text></g><!--entity Rule--><g class="entity" data-qualified-name="Rule" data-source-line="12" id="ent0003"><rect fill="#FFFFFF" height="36.2969" rx="6" ry="6" style="stroke:#000000;stroke-width:1;" width="75.9998" x="178.06" y="58.6094"/><text fill="#000000" font-family="Microsoft YaHei" font-size="14" lengthAdjust="spacing" textLength="55.9998" x="188.06" y="81.6045">&#35268;&#21017;&#24341;&#25806;</text></g><!--entity Rubric--><g class="entity" data-qualified-name="Rubric" data-source-line="13" id="ent0004"><rect fill="#FFFFFF" height="36.2969" rx="6" ry="6" style="stroke:#000000;stroke-width:1;" width="97.2802" x="167.42" y="129.6094"/><text fill="#000000" font-family="Microsoft YaHei" font-size="14" lengthAdjust="spacing" textLength="77.2802" x="177.42" y="152.6045">Rubric &#35780;&#20998;</text></g><!--entity LLM--><g class="entity" data-qualified-name="LLM" data-source-line="14" id="ent0005"><rect fill="#FFFFFF" height="36.2969" rx="6" ry="6" style="stroke:#000000;stroke-width:1;" width="108.1287" x="162" y="200.6094"/><text fill="#000000" font-family="Microsoft YaHei" font-size="14" lengthAdjust="spacing" textLength="88.1287" x="172" y="223.6045">LLM &#35821;&#20041;&#20998;&#26512;</text></g><!--entity Risk--><g class="entity" data-qualified-name="Risk" data-source-line="15" id="ent0006"><rect fill="#FFFFFF" height="36.2969" rx="6" ry="6" style="stroke:#000000;stroke-width:1;" width="75.9998" x="330.13" y="58.6094"/><text fill="#000000" font-family="Microsoft YaHei" font-size="14" lengthAdjust="spacing" textLength="55.9998" x="340.13" y="81.6045">&#39118;&#38505;&#35782;&#21035;</text></g><!--entity Score--><g class="entity" data-qualified-name="Score" data-source-line="16" id="ent0007"><rect fill="#FFFFFF" height="36.2969" rx="6" ry="6" style="stroke:#000000;stroke-width:1;" width="75.9998" x="330.13" y="129.6094"/><text fill="#000000" font-family="Microsoft YaHei" font-size="14" lengthAdjust="spacing" textLength="55.9998" x="340.13" y="152.6045">&#32500;&#24230;&#35780;&#20998;</text></g><!--entity Evidence--><g class="entity" data-qualified-name="Evidence" data-source-line="17" id="ent0008"><rect fill="#FFFFFF" height="36.2969" rx="6" ry="6" style="stroke:#000000;stroke-width:1;" width="75.9998" x="330.13" y="200.6094"/><text fill="#000000" font-family="Microsoft YaHei" font-size="14" lengthAdjust="spacing" textLength="55.9998" x="340.13" y="223.6045">&#35777;&#25454;&#25552;&#21462;</text></g><!--entity Schema--><g class="entity" data-qualified-name="Schema" data-source-line="18" id="ent0009"><rect fill="#FFFFFF" height="36.2969" rx="6" ry="6" style="stroke:#000000;stroke-width:1;" width="147.6952" x="466.13" y="129.6094"/><text fill="#000000" font-family="Microsoft YaHei" font-size="14" lengthAdjust="spacing" textLength="127.6952" x="476.13" y="152.6045">JSON Schema &#26657;&#39564;</text></g><!--entity Result--><g class="entity" data-qualified-name="Result" data-source-line="19" id="ent0010"><rect fill="#FFFFFF" height="36.2969" rx="6" ry="6" style="stroke:#000000;stroke-width:1;" width="117.9996" x="673.82" y="129.6094"/><text fill="#000000" font-family="Microsoft YaHei" font-size="14" lengthAdjust="spacing" textLength="97.9996" x="683.82" y="152.6045">&#32467;&#26500;&#21270;&#35780;&#20272;&#32467;&#26524;</text></g><!--entity Feedback--><g class="entity" data-qualified-name="Feedback" data-source-line="20" id="ent0011"><rect fill="#FFFFFF" height="36.2969" rx="6" ry="6" style="stroke:#000000;stroke-width:1;" width="117.9996" x="851.82" y="129.6094"/><text fill="#000000" font-family="Microsoft YaHei" font-size="14" lengthAdjust="spacing" textLength="97.9996" x="861.82" y="152.6045">&#21453;&#39304;&#19982;&#25913;&#36827;&#24314;&#35758;</text></g><!--link Input to Rule--><g class="link" data-entity-1="ent0002" data-entity-2="ent0003" data-link-type="dependency" data-source-line="22" id="lnk12"><path d="M98.86,129.2894 C123.22,118.2794 148.4421,106.8695 172.1721,96.1495" fill="none" id="Input-to-Rule" style="stroke:#000000;stroke-width:1;"/><polygon fill="#000000" points="177.64,93.6794,167.7913,93.7393,173.0834,95.7378,171.0848,101.0299,177.64,93.6794" style="stroke:#000000;stroke-width:1;"/></g><!--link Input to Rubric--><g class="link" data-entity-1="ent0002" data-entity-2="ent0004" data-link-type="dependency" data-source-line="23" id="lnk13"><path d="M102.17,147.7594 C122.4,147.7594 140.43,147.7594 161.1,147.7594" fill="none" id="Input-to-Rubric" style="stroke:#000000;stroke-width:1;"/><polygon fill="#000000" points="167.1,147.7594,158.1,143.7594,162.1,147.7594,158.1,151.7594,167.1,147.7594" style="stroke:#000000;stroke-width:1;"/></g><!--link Input to LLM--><g class="link" data-entity-1="ent0002" data-entity-2="ent0005" data-link-type="dependency" data-source-line="24" id="lnk14"><path d="M98.86,166.2294 C121.94,176.6694 145.2522,187.2088 168.4022,197.6688" fill="none" id="Input-to-LLM" style="stroke:#000000;stroke-width:1;"/><polygon fill="#000000" points="173.87,200.1394,167.3154,192.7884,169.3135,198.0806,164.0213,200.0788,173.87,200.1394" style="stroke:#000000;stroke-width:1;"/></g><!--link Rule to Risk--><g class="link" data-entity-1="ent0003" data-entity-2="ent0006" data-link-type="dependency" data-source-line="25" id="lnk15"><path d="M254.54,76.7594 C277.55,76.7594 300.9,76.7594 323.87,76.7594" fill="none" id="Rule-to-Risk" style="stroke:#000000;stroke-width:1;"/><polygon fill="#000000" points="329.87,76.7594,320.87,72.7594,324.87,76.7594,320.87,80.7594,329.87,76.7594" style="stroke:#000000;stroke-width:1;"/></g><!--link Rubric to Score--><g class="link" data-entity-1="ent0004" data-entity-2="ent0007" data-link-type="dependency" data-source-line="26" id="lnk16"><path d="M264.96,147.7594 C285.89,147.7594 304.07,147.7594 323.66,147.7594" fill="none" id="Rubric-to-Score" style="stroke:#000000;stroke-width:1;"/><polygon fill="#000000" points="329.66,147.7594,320.66,143.7594,324.66,147.7594,320.66,151.7594,329.66,147.7594" style="stroke:#000000;stroke-width:1;"/></g><!--link LLM to Evidence--><g class="link" data-entity-1="ent0005" data-entity-2="ent0008" data-link-type="dependency" data-source-line="27" id="lnk17"><path d="M270.39,218.7594 C290.11,218.7594 306.01,218.7594 323.98,218.7594" fill="none" id="LLM-to-Evidence" style="stroke:#000000;stroke-width:1;"/><polygon fill="#000000" points="329.98,218.7594,320.98,214.7594,324.98,218.7594,320.98,222.7594,329.98,218.7594" style="stroke:#000000;stroke-width:1;"/></g><!--link Risk to Schema--><g class="link" data-entity-1="ent0006" data-entity-2="ent0009" data-link-type="dependency" data-source-line="28" id="lnk18"><path d="M406.4,92.3394 C432.38,103.1994 461.6136,115.4267 489.0236,126.8767" fill="none" id="Risk-to-Schema" style="stroke:#000000;stroke-width:1;"/><polygon fill="#000000" points="494.56,129.1894,487.7973,122.0294,489.9464,127.2621,484.7136,129.4112,494.56,129.1894" style="stroke:#000000;stroke-width:1;"/></g><!--link Score to Schema--><g class="link" data-entity-1="ent0007" data-entity-2="ent0009" data-link-type="dependency" data-source-line="29" id="lnk19"><path d="M406.4,147.7594 C423.88,147.7594 439.34,147.7594 459.87,147.7594" fill="none" id="Score-to-Schema" style="stroke:#000000;stroke-width:1;"/><polygon fill="#000000" points="465.87,147.7594,456.87,143.7594,460.87,147.7594,456.87,151.7594,465.87,147.7594" style="stroke:#000000;stroke-width:1;"/></g><!--link Evidence to Schema--><g class="link" data-entity-1="ent0008" data-entity-2="ent0009" data-link-type="dependency" data-source-line="30" id="lnk20"><path d="M406.4,203.1794 C432.38,192.3194 461.6144,180.1038 489.0244,168.6438" fill="none" id="Evidence-to-Schema" style="stroke:#000000;stroke-width:1;"/><polygon fill="#000000" points="494.56,166.3294,484.7136,166.1106,489.947,168.2581,487.7995,173.4915,494.56,166.3294" style="stroke:#000000;stroke-width:1;"/></g><!--link Schema to Result--><g class="link" data-entity-1="ent0009" data-entity-2="ent0010" data-link-type="dependency" data-source-line="31" id="lnk21"><path d="M614.22,147.7594 C633.87,147.7594 648.86,147.7594 667.58,147.7594" fill="none" id="Schema-to-Result" style="stroke:#000000;stroke-width:1;"/><polygon fill="#000000" points="673.58,147.7594,664.58,143.7594,668.58,147.7594,664.58,151.7594,673.58,147.7594" style="stroke:#000000;stroke-width:1;"/></g><!--link Result to Feedback--><g class="link" data-entity-1="ent0010" data-entity-2="ent0011" data-link-type="dependency" data-source-line="32" id="lnk22"><path d="M791.94,147.7594 C811.06,147.7594 826.32,147.7594 845.47,147.7594" fill="none" id="Result-to-Feedback" style="stroke:#000000;stroke-width:1;"/><polygon fill="#000000" points="851.47,147.7594,842.47,143.7594,846.47,147.7594,842.47,151.7594,851.47,147.7594" style="stroke:#000000;stroke-width:1;"/></g><?plantuml-src LP7HBWD158Rlvoc6UnSyW0j244NgokNOdRQJhfbcTvQ4I4XALaBRf4WQ8XLHGRGkHBI4b-ciwLkOcIrchpRdFz_-vvn_HdW1Rs1OyX2XmCCv3Zc3FiaNE7I9ZnrE60L1aT0Iyj4630h8PLk4vc4EUG6sEYxEeT3Ziupo9QGSCyJnMS2KuHgQmyGYjIkYUG_37G1XbeNKdMO-nJuSdm2x0732LM_AGzju1LCezqz5BPATSl_ZERxiYUXLN7m2yEyoAfvQ_MvJxXt8pxeuk1s5A83pj1Ho6v9tPH4rnCTPNAyO8Xjws0QouRfF7AW6YUXmI6Z5PXONCmfuwdUF51DVrGocH9iPt5G6ZNlPEHJHOs93Wg8DVB-_Y5xBchFgC3-rYkpinoVjk5eJrND3p6mI5rCd1IsiBY-fNzNp8HWthmSFnqCphQJdrUEhiZW-Jp8qvMMo6GxKawMYh9uCMb7_hHAVTkNNXNZloNRRiBCOk-l8AG9WeeLZOvD9X7PfyleNT3AQIRewXc78kawkredgwkz2ZGtxvX23sS8lcOPC36PCSbFoCShlvZy0?></g></svg>