<?plantuml 1.2026.1?><svg xmlns="http://www.w3.org/2000/svg" xmlns:xlink="http://www.w3.org/1999/xlink" contentStyleType="text/css" data-diagram-type="DESCRIPTION" height="242px" preserveAspectRatio="none" style="width:1057px;height:242px;background:#FFFFFF;" version="1.1" viewBox="0 0 1057 242" width="1057px" zoomAndPan="magnify"><title>BlazePen &#30693;&#35782;&#36861;&#36394;&#19982;&#25512;&#33616;&#26426;&#21046;&#22270;</title><defs/><g><g class="title" data-source-line="9"><text fill="#000000" font-family="Microsoft YaHei" font-size="22" font-weight="bold" lengthAdjust="spacing" textLength="341.2478" x="353.516" y="35.4209">BlazePen &#30693;&#35782;&#36861;&#36394;&#19982;&#25512;&#33616;&#26426;&#21046;&#22270;</text></g><!--entity Input--><g class="entity" data-qualified-name="Input" data-source-line="11" id="ent0002"><rect fill="#FFFFFF" height="36.2969" rx="6" ry="6" style="stroke:#000000;stroke-width:1;" width="89.9997" x="12" y="165.6094"/><text fill="#000000" font-family="Microsoft YaHei" font-size="14" lengthAdjust="spacing" textLength="69.9997" x="22" y="188.6045">&#23398;&#20064;&#32773;&#36755;&#20837;</text></g><!--entity Eval--><g class="entity" data-qualified-name="Eval" data-source-line="12" id="ent0003"><rect fill="#FFFFFF" height="36.2969" rx="6" ry="6" style="stroke:#000000;stroke-width:1;" width="75.9998" x="162" y="165.6094"/><text fill="#000000" font-family="Microsoft YaHei" font-size="14" lengthAdjust="spacing" textLength="55.9998" x="172" y="188.6045">&#22238;&#21512;&#35780;&#20272;</text></g><!--entity BKT--><g class="entity" data-qualified-name="BKT" data-source-line="13" id="ent0004"><rect fill="#FFFFFF" height="36.2969" rx="6" ry="6" style="stroke:#000000;stroke-width:1;" width="79.787" x="298" y="129.6094"/><text fill="#000000" font-family="Microsoft YaHei" font-size="14" lengthAdjust="spacing" textLength="59.787" x="308" y="152.6045">BKT &#26356;&#26032;</text></g><!--entity Risk--><g class="entity" data-qualified-name="Risk" data-source-line="14" id="ent0005"><rect fill="#FFFFFF" height="36.2969" rx="6" ry="6" style="stroke:#000000;stroke-width:1;" width="75.9998" x="299.89" y="200.6094"/><text fill="#000000" font-family="Microsoft YaHei" font-size="14" lengthAdjust="spacing" textLength="55.9998" x="309.89" y="223.6045">&#39118;&#38505;&#26631;&#35760;</text></g><!--entity KState--><g class="entity" data-qualified-name="KState" data-source-line="15" id="ent0006"><rect fill="#FFFFFF" height="36.2969" rx="6" ry="6" style="stroke:#000000;stroke-width:1;" width="103.0223" x="475.02" y="58.6094"/><text fill="#000000" font-family="Microsoft YaHei" font-size="14" lengthAdjust="spacing" textLength="83.0223" x="485.02" y="81.6045">k_state &#26356;&#26032;</text></g><!--entity SState--><g class="entity" data-qualified-name="SState" data-source-line="16" id="ent0007"><rect fill="#FFFFFF" height="36.2969" rx="6" ry="6" style="stroke:#000000;stroke-width:1;" width="102.2089" x="475.43" y="200.6094"/><text fill="#000000" font-family="Microsoft YaHei" font-size="14" lengthAdjust="spacing" textLength="82.2089" x="485.43" y="223.6045">s_state &#26356;&#26032;</text></g><!--entity Phase--><g class="entity" data-qualified-name="Phase" data-source-line="17" id="ent0008"><rect fill="#FFFFFF" height="36.2969" rx="6" ry="6" style="stroke:#000000;stroke-width:1;" width="75.9998" x="675.28" y="129.6094"/><text fill="#000000" font-family="Microsoft YaHei" font-size="14" lengthAdjust="spacing" textLength="55.9998" x="685.28" y="152.6045">&#38454;&#27573;&#31574;&#30053;</text></g><!--entity Next--><g class="entity" data-qualified-name="Next" data-source-line="18" id="ent0009"><rect fill="#FFFFFF" height="36.2969" rx="6" ry="6" style="stroke:#000000;stroke-width:1;" width="103.9996" x="811.28" y="129.6094"/><text fill="#000000" font-family="Microsoft YaHei" font-size="14" lengthAdjust="spacing" textLength="83.9996" x="821.28" y="152.6045">&#19979;&#19968;&#22330;&#26223;&#25512;&#33616;</text></g><!--entity Flow--><g class="entity" data-qualified-name="Flow" data-source-line="19" id="ent0010"><rect fill="#FFFFFF" height="36.2969" rx="6" ry="6" style="stroke:#000000;stroke-width:1;" width="75.9998" x="975.28" y="129.6094"/><text fill="#000000" font-family="Microsoft YaHei" font-size="14" lengthAdjust="spacing" textLength="55.9998" x="985.28" y="152.6045">&#35757;&#32451;&#25512;&#36827;</text></g><!--entity Future--><g class="entity" data-qualified-name="Future" data-source-line="20" id="ent0011"><rect fill="#FFFFFF" height="36.2969" rx="6" ry="6" style="stroke:#000000;stroke-width:1;" width="177.4929" x="437.79" y="129.6094"/><text fill="#000000" font-family="Microsoft YaHei" font-size="14" lengthAdjust="spacing" textLength="157.4929" x="447.79" y="152.6045">&#39044;&#30041; LLM-KT / DKT &#25193;&#23637;</text></g><!--link Input to Eval--><g class="link" data-entity-1="ent0002" data-entity-2="ent0003" data-link-type="dependency" data-source-line="22" id="lnk12"><path d="M102.23,183.7594 C121.29,183.7594 137.34,183.7594 155.57,183.7594" fill="none" id="Input-to-Eval" style="stroke:#000000;stroke-width:1;"/><polygon fill="#000000" points="161.57,183.7594,152.57,179.7594,156.57,183.7594,152.57,187.7594,161.57,183.7594" style="stroke:#000000;stroke-width:1;"/></g><!--link Eval to BKT--><g class="link" data-entity-1="ent0003" data-entity-2="ent0004" data-link-type="dependency" data-source-line="23" id="lnk13"><path d="M238.49,173.8294 C256.88,168.9594 273.2106,164.638 291.8306,159.698" fill="none" id="Eval-to-BKT" style="stroke:#000000;stroke-width:1;"/><polygon fill="#000000" points="297.63,158.1594,287.9052,156.601,292.7972,159.4415,289.9567,164.3335,297.63,158.1594" style="stroke:#000000;stroke-width:1;"/></g><!--link Eval to Risk--><g class="link" data-entity-1="ent0003" data-entity-2="ent0005" data-link-type="dependency" data-source-line="24" id="lnk14"><path d="M238.49,193.4194 C257.5,198.3094 274.7203,202.7403 293.7103,207.6403" fill="none" id="Eval-to-Risk" style="stroke:#000000;stroke-width:1;"/><polygon fill="#000000" points="299.52,209.1394,291.8048,203.0176,294.6786,207.8901,289.806,210.7639,299.52,209.1394" style="stroke:#000000;stroke-width:1;"/></g><!--link BKT to KState--><g class="link" data-entity-1="ent0004" data-entity-2="ent0006" data-link-type="dependency" data-source-line="25" id="lnk15"><path d="M378.02,132.8794 C406.77,121.9394 440.4219,109.1322 471.2119,97.4222" fill="none" id="BKT-to-KState" style="stroke:#000000;stroke-width:1;"/><polygon fill="#000000" points="476.82,95.2894,466.9859,94.7499,472.1466,97.0668,469.8297,102.2274,476.82,95.2894" style="stroke:#000000;stroke-width:1;"/></g><!--link Risk to SState--><g class="link" data-entity-1="ent0005" data-entity-2="ent0007" data-link-type="dependency" data-source-line="26" id="lnk16"><path d="M376.21,218.7594 C404.62,218.7594 438,218.7594 469.19,218.7594" fill="none" id="Risk-to-SState" style="stroke:#000000;stroke-width:1;"/><polygon fill="#000000" points="475.19,218.7594,466.19,214.7594,470.19,218.7594,466.19,222.7594,475.19,218.7594" style="stroke:#000000;stroke-width:1;"/></g><!--link KState to Phase--><g class="link" data-entity-1="ent0006" data-entity-2="ent0008" data-link-type="dependency" data-source-line="27" id="lnk17"><path d="M575.59,95.2294 C606.6,107.1494 640.7292,120.2675 669.3592,131.2675" fill="none" id="KState-to-Phase" style="stroke:#000000;stroke-width:1;"/><polygon fill="#000000" points="674.96,133.4194,667.9934,126.4576,670.2926,131.6261,665.1242,133.9254,674.96,133.4194" style="stroke:#000000;stroke-width:1;"/></g><!--link SState to Phase--><g class="link" data-entity-1="ent0007" data-entity-2="ent0008" data-link-type="dependency" data-source-line="28" id="lnk18"><path d="M575.59,200.2894 C606.6,188.3794 640.7298,175.263 669.3598,164.253" fill="none" id="SState-to-Phase" style="stroke:#000000;stroke-width:1;"/><polygon fill="#000000" points="674.96,162.0994,665.124,161.5963,670.2932,163.8941,667.9955,169.0632,674.96,162.0994" style="stroke:#000000;stroke-width:1;"/></g><!--link Phase to Next--><g class="link" data-entity-1="ent0008" data-entity-2="ent0009" data-link-type="dependency" data-source-line="29" id="lnk19"><path d="M751.63,147.7594 C769.61,147.7594 785.45,147.7594 804.97,147.7594" fill="none" id="Phase-to-Next" style="stroke:#000000;stroke-width:1;"/><polygon fill="#000000" points="810.97,147.7594,801.97,143.7594,805.97,147.7594,801.97,151.7594,810.97,147.7594" style="stroke:#000000;stroke-width:1;"/></g><!--link Next to Flow--><g class="link" data-entity-1="ent0009" data-entity-2="ent0010" data-link-type="dependency" data-source-line="30" id="lnk20"><path d="M915.63,147.7594 C935.16,147.7594 951.03,147.7594 969.02,147.7594" fill="none" id="Next-to-Flow" style="stroke:#000000;stroke-width:1;"/><polygon fill="#000000" points="975.02,147.7594,966.02,143.7594,970.02,147.7594,966.02,151.7594,975.02,147.7594" style="stroke:#000000;stroke-width:1;"/></g><!--link BKT to Future--><g class="link" data-entity-1="ent0004" data-entity-2="ent0011" data-link-type="dependency" data-source-line="31" id="lnk21"><path d="M378.02,147.7594 C395.44,147.7594 410.72,147.7594 431.64,147.7594" fill="none" id="BKT-to-Future" style="stroke:#000000;stroke-width:1;"/><polygon fill="#000000" points="437.64,147.7594,428.64,143.7594,432.64,147.7594,428.64,151.7594,437.64,147.7594" style="stroke:#000000;stroke-width:1;"/></g><?plantuml-src PP3TIbj158NlvocstWVH1_0YMgceGH9ll2g3cIH3ZZFXp1mZYY2ehQKq22LYYBIYABMGH44bHeqlStucR-6P6TkUwCs6jVV7cbbhH9R8Ae6AWob33Yb8a1nSMYn9o5ENh4ZA6H9boYhOnQiWIZZFgvGLeO0TGHANF2bWpv4pdCaCZXqNw8hB1OyDb_57GXEaTiMiw13OH01Pxh7y57SPSM5y0cqX9AcCRsa7Rv15mY3wTQuwdzNpa-h-yRkriFPRVJy8Ztl1_btGx2FqtsuqQ5tuzoTgUq_rVmHxvwE01SooYYU7eERFu61VTNRznoj3V5Z3JX98por1sBm93-qvbidhuAmsQ5o69rzKszwpL9IJGFcJa5YIfCLSJc-Ia7WFvTv1WwExi7qRjGwZkisoMC9YYF2xt_pkTd3S2niTMupXCcHzAB9gjwA77GqyDmqmu_3gq4kdkr6z0VFp2wau_1XCwmg-NWRNTOjxqdC9GgPBIAKcRMTw6AKh-YTC7xf3BLwJwvtHho7jscnifjpRXPb6cp1w66L-_jVT_ki5?></g></svg>