<?plantuml 1.2026.1?><svg xmlns="http://www.w3.org/2000/svg" xmlns:xlink="http://www.w3.org/1999/xlink" contentStyleType="text/css" data-diagram-type="DESCRIPTION" height="151px" preserveAspectRatio="none" style="width:1542px;height:151px;background:#FFFFFF;" version="1.1" viewBox="0 0 1542 151" width="1542px" zoomAndPan="magnify"><title>BlazePen &#31995;&#32479;&#30028;&#38754;&#32467;&#26500;&#31034;&#24847;&#22270;</title><defs/><g><g class="title" data-source-line="10"><text fill="#000000" font-family="Microsoft YaHei" font-size="22" font-weight="bold" lengthAdjust="spacing" textLength="319.2477" x="606.8761" y="35.4209">BlazePen &#31995;&#32479;&#30028;&#38754;&#32467;&#26500;&#31034;&#24847;&#22270;</text></g><!--cluster ?????--><g class="cluster" data-qualified-name="....." data-source-line="12" id="ent0002"><rect fill="#FFFFFF" height="87" rx="6" ry="6" style="stroke:#000000;stroke-width:1;" width="408" x="12" y="58.6094"/><text fill="#000000" font-family="Microsoft YaHei" font-size="14" font-weight="bold" lengthAdjust="spacing" textLength="69.9997" x="181.0002" y="73.6045">&#35757;&#32451;&#20837;&#21475;&#39029;</text></g><!--cluster ?????--><g class="cluster" data-qualified-name="....." data-source-line="18" id="ent0006"><rect fill="#FFFFFF" height="87" rx="6" ry="6" style="stroke:#000000;stroke-width:1;" width="530" x="448" y="58.6094"/><text fill="#000000" font-family="Microsoft YaHei" font-size="14" font-weight="bold" lengthAdjust="spacing" textLength="69.9997" x="678.0002" y="73.6045">&#35757;&#32451;&#36807;&#31243;&#39029;</text></g><!--cluster ?????--><g class="cluster" data-qualified-name="....." data-source-line="25" id="ent0011"><rect fill="#FFFFFF" height="87" rx="6" ry="6" style="stroke:#000000;stroke-width:1;" width="530" x="1006" y="58.6094"/><text fill="#000000" font-family="Microsoft YaHei" font-size="14" font-weight="bold" lengthAdjust="spacing" textLength="69.9997" x="1236.0002" y="73.6045">&#22797;&#30424;&#25253;&#21578;&#39029;</text></g><!--entity A1--><g class="entity" data-qualified-name="......A1" data-source-line="13" id="ent0003"><rect fill="#FFFFFF" height="36.2969" rx="6" ry="6" style="stroke:#000000;stroke-width:1;" width="75.9998" x="28" y="93.4594"/><text fill="#000000" font-family="Microsoft YaHei" font-size="14" lengthAdjust="spacing" textLength="55.9998" x="38" y="116.4545">&#36523;&#20221;&#35774;&#23450;</text></g><!--entity A2--><g class="entity" data-qualified-name="......A2" data-source-line="14" id="ent0004"><rect fill="#FFFFFF" height="36.2969" rx="6" ry="6" style="stroke:#000000;stroke-width:1;" width="103.9996" x="164" y="93.4594"/><text fill="#000000" font-family="Microsoft YaHei" font-size="14" lengthAdjust="spacing" textLength="83.9996" x="174" y="116.4545">&#35282;&#33394;&#24418;&#35937;&#36873;&#25321;</text></g><!--entity A3--><g class="entity" data-qualified-name="......A3" data-source-line="15" id="ent0005"><rect fill="#FFFFFF" height="36.2969" rx="6" ry="6" style="stroke:#000000;stroke-width:1;" width="75.9998" x="328" y="93.4594"/><text fill="#000000" font-family="Microsoft YaHei" font-size="14" lengthAdjust="spacing" textLength="55.9998" x="338" y="116.4545">&#24320;&#22987;&#35757;&#32451;</text></g><!--entity B1--><g class="entity" data-qualified-name="......B1" data-source-line="19" id="ent0007"><rect fill="#FFFFFF" height="36.2969" rx="6" ry="6" style="stroke:#000000;stroke-width:1;" width="75.9998" x="464" y="93.4594"/><text fill="#000000" font-family="Microsoft YaHei" font-size="14" lengthAdjust="spacing" textLength="55.9998" x="474" y="116.4545">&#22330;&#26223;&#32972;&#26223;</text></g><!--entity B2--><g class="entity" data-qualified-name="......B2" data-source-line="20" id="ent0008"><rect fill="#FFFFFF" height="36.2969" rx="6" ry="6" style="stroke:#000000;stroke-width:1;" width="75.9998" x="600" y="93.4594"/><text fill="#000000" font-family="Microsoft YaHei" font-size="14" lengthAdjust="spacing" textLength="55.9998" x="610" y="116.4545">&#20219;&#21153;&#30446;&#26631;</text></g><!--entity B3--><g class="entity" data-qualified-name="......B3" data-source-line="21" id="ent0009"><rect fill="#FFFFFF" height="36.2969" rx="6" ry="6" style="stroke:#000000;stroke-width:1;" width="89.9997" x="736" y="93.4594"/><text fill="#000000" font-family="Microsoft YaHei" font-size="14" lengthAdjust="spacing" textLength="69.9997" x="746" y="116.4545">&#36755;&#20837;&#19982;&#20915;&#31574;</text></g><!--entity B4--><g class="entity" data-qualified-name="......B4" data-source-line="22" id="ent0010"><rect fill="#FFFFFF" height="36.2969" rx="6" ry="6" style="stroke:#000000;stroke-width:1;" width="75.9998" x="886" y="93.4594"/><text fill="#000000" font-family="Microsoft YaHei" font-size="14" lengthAdjust="spacing" textLength="55.9998" x="896" y="116.4545">&#38454;&#27573;&#21453;&#39304;</text></g><!--entity C1--><g class="entity" data-qualified-name="......C1" data-source-line="26" id="ent0012"><rect fill="#FFFFFF" height="36.2969" rx="6" ry="6" style="stroke:#000000;stroke-width:1;" width="75.9998" x="1022" y="93.4594"/><text fill="#000000" font-family="Microsoft YaHei" font-size="14" lengthAdjust="spacing" textLength="55.9998" x="1032" y="116.4545">&#32467;&#23616;&#32467;&#26524;</text></g><!--entity C2--><g class="entity" data-qualified-name="......C2" data-source-line="27" id="ent0013"><rect fill="#FFFFFF" height="36.2969" rx="6" ry="6" style="stroke:#000000;stroke-width:1;" width="89.9997" x="1158" y="93.4594"/><text fill="#000000" font-family="Microsoft YaHei" font-size="14" lengthAdjust="spacing" textLength="69.9997" x="1168" y="116.4545">&#33021;&#21147;&#38647;&#36798;&#22270;</text></g><!--entity C3--><g class="entity" data-qualified-name="......C3" data-source-line="28" id="ent0014"><rect fill="#FFFFFF" height="36.2969" rx="6" ry="6" style="stroke:#000000;stroke-width:1;" width="75.9998" x="1308" y="93.4594"/><text fill="#000000" font-family="Microsoft YaHei" font-size="14" lengthAdjust="spacing" textLength="55.9998" x="1318" y="116.4545">&#25104;&#38271;&#26354;&#32447;</text></g><!--entity C4--><g class="entity" data-qualified-name="......C4" data-source-line="29" id="ent0015"><rect fill="#FFFFFF" height="36.2969" rx="6" ry="6" style="stroke:#000000;stroke-width:1;" width="75.9998" x="1444" y="93.4594"/><text fill="#000000" font-family="Microsoft YaHei" font-size="14" lengthAdjust="spacing" textLength="55.9998" x="1454" y="116.4545">&#25913;&#36827;&#24314;&#35758;</text></g><!--link A1 to A2--><g class="link" data-entity-1="ent0003" data-entity-2="ent0004" data-link-type="dependency" data-source-line="32" id="lnk16"><path d="M104.35,111.6094 C122.33,111.6094 138.18,111.6094 157.69,111.6094" fill="none" id="A1-to-A2" style="stroke:#000000;stroke-width:1;"/><polygon fill="#000000" points="163.69,111.6094,154.69,107.6094,158.69,111.6094,154.69,115.6094,163.69,111.6094" style="stroke:#000000;stroke-width:1;"/></g><!--link A2 to A3--><g class="link" data-entity-1="ent0004" data-entity-2="ent0005" data-link-type="dependency" data-source-line="33" id="lnk17"><path d="M268.35,111.6094 C287.88,111.6094 303.75,111.6094 321.74,111.6094" fill="none" id="A2-to-A3" style="stroke:#000000;stroke-width:1;"/><polygon fill="#000000" points="327.74,111.6094,318.74,107.6094,322.74,111.6094,318.74,115.6094,327.74,111.6094" style="stroke:#000000;stroke-width:1;"/></g><!--link A3 to B1--><g class="link" data-entity-1="ent0005" data-entity-2="ent0007" data-link-type="dependency" data-source-line="34" id="lnk18"><path d="M404.33,111.6094 C422.91,111.6094 439.31,111.6094 457.87,111.6094" fill="none" id="A3-to-B1" style="stroke:#000000;stroke-width:1;"/><polygon fill="#000000" points="463.87,111.6094,454.87,107.6094,458.87,111.6094,454.87,115.6094,463.87,111.6094" style="stroke:#000000;stroke-width:1;"/></g><!--link B1 to B2--><g class="link" data-entity-1="ent0007" data-entity-2="ent0008" data-link-type="dependency" data-source-line="35" id="lnk19"><path d="M540.33,111.6094 C558.91,111.6094 575.31,111.6094 593.87,111.6094" fill="none" id="B1-to-B2" style="stroke:#000000;stroke-width:1;"/><polygon fill="#000000" points="599.87,111.6094,590.87,107.6094,594.87,111.6094,590.87,115.6094,599.87,111.6094" style="stroke:#000000;stroke-width:1;"/></g><!--link B2 to B3--><g class="link" data-entity-1="ent0008" data-entity-2="ent0009" data-link-type="dependency" data-source-line="36" id="lnk20"><path d="M676.41,111.6094 C694.61,111.6094 710.6,111.6094 729.64,111.6094" fill="none" id="B2-to-B3" style="stroke:#000000;stroke-width:1;"/><polygon fill="#000000" points="735.64,111.6094,726.64,107.6094,730.64,111.6094,726.64,115.6094,735.64,111.6094" style="stroke:#000000;stroke-width:1;"/></g><!--link B3 to B4--><g class="link" data-entity-1="ent0009" data-entity-2="ent0010" data-link-type="dependency" data-source-line="37" id="lnk21"><path d="M826.22,111.6094 C845.28,111.6094 861.33,111.6094 879.57,111.6094" fill="none" id="B3-to-B4" style="stroke:#000000;stroke-width:1;"/><polygon fill="#000000" points="885.57,111.6094,876.57,107.6094,880.57,111.6094,876.57,115.6094,885.57,111.6094" style="stroke:#000000;stroke-width:1;"/></g><!--link B4 to C1--><g class="link" data-entity-1="ent0010" data-entity-2="ent0012" data-link-type="dependency" data-source-line="38" id="lnk22"><path d="M962.32,111.6094 C980.91,111.6094 997.31,111.6094 1015.87,111.6094" fill="none" id="B4-to-C1" style="stroke:#000000;stroke-width:1;"/><polygon fill="#000000" points="1021.87,111.6094,1012.87,107.6094,1016.87,111.6094,1012.87,115.6094,1021.87,111.6094" style="stroke:#000000;stroke-width:1;"/></g><!--link C1 to C2--><g class="link" data-entity-1="ent0012" data-entity-2="ent0013" data-link-type="dependency" data-source-line="39" id="lnk23"><path d="M1098.41,111.6094 C1116.61,111.6094 1132.6,111.6094 1151.64,111.6094" fill="none" id="C1-to-C2" style="stroke:#000000;stroke-width:1;"/><polygon fill="#000000" points="1157.64,111.6094,1148.64,107.6094,1152.64,111.6094,1148.64,115.6094,1157.64,111.6094" style="stroke:#000000;stroke-width:1;"/></g><!--link C2 to C3--><g class="link" data-entity-1="ent0013" data-entity-2="ent0014" data-link-type="dependency" data-source-line="40" id="lnk24"><path d="M1248.22,111.6094 C1267.28,111.6094 1283.33,111.6094 1301.57,111.6094" fill="none" id="C2-to-C3" style="stroke:#000000;stroke-width:1;"/><polygon fill="#000000" points="1307.57,111.6094,1298.57,107.6094,1302.57,111.6094,1298.57,115.6094,1307.57,111.6094" style="stroke:#000000;stroke-width:1;"/></g><!--link C3 to C4--><g class="link" data-entity-1="ent0014" data-entity-2="ent0015" data-link-type="dependency" data-source-line="41" id="lnk25"><path d="M1384.32,111.6094 C1402.91,111.6094 1419.31,111.6094 1437.87,111.6094" fill="none" id="C3-to-C4" style="stroke:#000000;stroke-width:1;"/><polygon fill="#000000" points="1443.87,111.6094,1434.87,107.6094,1438.87,111.6094,1434.87,115.6094,1443.87,111.6094" style="stroke:#000000;stroke-width:1;"/></g><?plantuml-src RP7BRjD058RtynH3zbtaiaQABI4sL0XMB4V991dL7KVsL0WGKgGKsYOj0KghWaiXfQKWLAEsAXURE2-JkVWjc7WgIAnkh2EVRyxvvfyRh8MNCMmxY53Wu0Q3p8KUQROOh1CFrnXnAV2N26qZ3or3luNgxaD2cx2171_FTEguWLOSTikbR17fYNT8pNDzLmzyW6vZCaEsKMq9DV5zziZ1SBe2qQOpE-hVF_W4G7ZFNQ5rs_Kezc2n19u2m0ZJFSj1Z_5TJA6yY6NyGUvifkyFPRmj3bRbKIHM1pn80BXQ1WigF9LnbpyxveDFwV2oaCt-lwcWec-JUAJ2X8Vl2X3vi5hC0IUlrSOv7nsgis7QsH3zhmOhpMFyJuUVzCqs0vIdpZaFDLwJN_hNUV3zIBpzhhgR-fkTjt8UapZclQ4CGl5npG0v0vLiwsjEVhtWpo_awQvXolDCklT3X9Tyi9L-NZT0PSwI7st9O4_qZlchtdMMEcT-ridIti_Es_cqkYFU2zBWfqeI_H26oOcAzPVfpbW4vp8Q6o1dATxyLkE0nv4AGmDabjKYN5YuEKs-MZ9L6LJBMQN3ianNfsAPhhwxTTMj0AkILLhNDfoMiWsdjzk6ioj_0G00?></g></svg>